<svg aria-hidden="true" focusable="false" role="presentation" xmlns="http://www.w3.org/2000/svg" width="28" height="28" viewBox="0 0 28 28">      <path fill="currentColor" fill-rule="evenodd" d="M11.114 7.042c-.745.034-1.254.152-1.7.326-.46.178-.85.418-1.24.807-.388.389-.628.78-.806 1.24-.174.445-.292.954-.326 1.699C7.008 11.86 7 12.099 7 14c0 1.901.008 2.14.042 2.886.034.745.152 1.254.326 1.7.178.46.418.85.807 1.24.389.388.78.628 1.24.807.445.173.954.29 1.699.325.747.034.985.042 2.886.042 1.901 0 2.14-.008 2.886-.042.745-.034 1.254-.152 1.7-.325.46-.18.85-.419 1.24-.808.388-.389.628-.78.807-1.24.173-.445.29-.954.325-1.699.034-.747.042-.985.042-2.886 0-1.901-.008-2.14-.042-2.886-.034-.745-.152-1.254-.325-1.7a3.432 3.432 0 0 0-.808-1.24c-.389-.388-.78-.628-1.24-.806-.445-.174-.954-.292-1.699-.326C16.14 7.008 15.901 7 14 7c-1.901 0-2.14.008-2.886.042zM10.405 14a3.595 3.595 0 1 0 7.19 0 3.595 3.595 0 0 0-7.19 0zM14 16.333a2.333 2.333 0 1 1 0-4.666 2.333 2.333 0 0 1 0 4.666zm4.9-6.323a.84.84 0 1 1-1.68 0 .84.84 0 0 1 1.68 0z"/>    </svg>