<svg class="icon-grid " aria-hidden="true" focusable="false" role="presentation" xmlns="http://www.w3.org/2000/svg" width="20" height="20" viewBox="0 0 20 20" fill="currentColor">      <path fill-rule="evenodd" clip-rule="evenodd" d="M2 7V2H7V7H2ZM0 1C0 0.447715 0.447715 0 1 0H8C8.55229 0 9 0.447715 9 1V8C9 8.55229 8.55229 9 8 9H1C0.447715 9 0 8.55229 0 8V1ZM13 7V2H18V7H13ZM11 1C11 0.447715 11.4477 0 12 0H19C19.5523 0 20 0.447715 20 1V8C20 8.55229 19.5523 9 19 9H12C11.4477 9 11 8.55229 11 8V1ZM13 13V18H18V13H13ZM12 11C11.4477 11 11 11.4477 11 12V19C11 19.5523 11.4477 20 12 20H19C19.5523 20 20 19.5523 20 19V12C20 11.4477 19.5523 11 19 11H12ZM2 18V13H7V18H2ZM0 12C0 11.4477 0.447715 11 1 11H8C8.55229 11 9 11.4477 9 12V19C9 19.5523 8.55229 20 8 20H1C0.447715 20 0 19.5523 0 19V12Z" fill="currentColor"/>    </svg>