<svg width="22" height="22" viewBox="0 0 22 24" fill="none" id="svgkp" xmlns="http://www.w3.org/2000/svg">          <path d="M1 21V19.5C1 17.29 2.79 15.5 5 15.5H13C15.21 15.5 17 17.29 17 19.5V21" stroke="currentColor" stroke-linecap="round" stroke-linejoin="round" stroke-width="1.5"/>          <path d="M8.84998 11.9199C11.3353 11.9199 13.35 9.9052 13.35 7.41992C13.35 4.93464 11.3353 2.91992 8.84998 2.91992C6.36469 2.91992 4.34998 4.93464 4.34998 7.41992C4.34998 9.9052 6.36469 11.9199 8.84998 11.9199Z" stroke="currentColor" stroke-linecap="round" stroke-linejoin="round" stroke-width="1.5"/>          <path d="M19.8855 11.8047C20.5863 11.0339 20.0394 9.7975 18.9976 9.7975H16.0286L17.889 2.791C18.2115 1.57631 16.6867 0.745902 15.8413 1.67584L16.4209 2.20279L15.8413 1.67584L6.27813 12.1953C5.57736 12.9661 6.12429 14.2025 7.16606 14.2025H10.135L8.27467 21.209C7.95214 22.4237 9.47701 23.2541 10.3224 22.3242L9.75271 21.8063L10.3224 22.3242L19.8855 11.8047Z" fill="url(#paint0_linear_1777_502)"/>          <path d="M19.8855 11.8047C20.5863 11.0339 20.0394 9.7975 18.9976 9.7975H16.0286L17.889 2.791C18.2115 1.57631 16.6867 0.745902 15.8413 1.67584L16.4209 2.20279L15.8413 1.67584L6.27813 12.1953C5.57736 12.9661 6.12429 14.2025 7.16606 14.2025H10.135L8.27467 21.209C7.95214 22.4237 9.47701 23.2541 10.3224 22.3242L9.75271 21.8063L10.3224 22.3242L19.8855 11.8047Z" fill="#FEA200"/>          <path d="M19.8855 11.8047C20.5863 11.0339 20.0394 9.7975 18.9976 9.7975H16.0286L17.889 2.791C18.2115 1.57631 16.6867 0.745902 15.8413 1.67584L16.4209 2.20279L15.8413 1.67584L6.27813 12.1953C5.57736 12.9661 6.12429 14.2025 7.16606 14.2025H10.135L8.27467 21.209C7.95214 22.4237 9.47701 23.2541 10.3224 22.3242L9.75271 21.8063L10.3224 22.3242L19.8855 11.8047Z" stroke="#fff" stroke-width="1.6"/>          <defs>          <linearGradient id="paint0_linear_1777_502" x1="13.0818" y1="7.59083" x2="13.0818" y2="18.6367" gradientUnits="userSpaceOnUse">              <stop stop-color="#FFD100"/>              <stop offset="1" stop-color="#FEA200"/>          </linearGradient>          </defs>      </svg>